<?xml version="1.0" encoding="UTF-8" standalone="no"?>
<!-- Created with Inkscape (http://www.inkscape.org/) -->

<svg
   width="41.53001mm"
   height="56.070873mm"
   viewBox="0 0 41.53001 56.070873"
   version="1.1"
   id="svg1"
   xml:space="preserve"
   inkscape:version="1.3.2 (091e20e, 2023-11-25, custom)"
   sodipodi:docname="logosvg.svg"
   inkscape:export-filename="logo-unam-negro.png"
   inkscape:export-xdpi="96"
   inkscape:export-ydpi="96"
   xmlns:inkscape="http://www.inkscape.org/namespaces/inkscape"
   xmlns:sodipodi="http://sodipodi.sourceforge.net/DTD/sodipodi-0.dtd"
   xmlns="http://www.w3.org/2000/svg"
   xmlns:svg="http://www.w3.org/2000/svg"><sodipodi:namedview
     id="namedview1"
     pagecolor="#ffffff"
     bordercolor="#000000"
     borderopacity="0.25"
     inkscape:showpageshadow="2"
     inkscape:pageopacity="0.0"
     inkscape:pagecheckerboard="false"
     inkscape:deskcolor="#d1d1d1"
     inkscape:document-units="mm"
     inkscape:zoom="1.9880533"
     inkscape:cx="246.47226"
     inkscape:cy="122.48162"
     inkscape:window-width="2040"
     inkscape:window-height="1118"
     inkscape:window-x="2869"
     inkscape:window-y="-11"
     inkscape:window-maximized="1"
     inkscape:current-layer="layer1"
     labelstyle="default" /><defs
     id="defs1" /><g
     inkscape:label="Layer 1"
     inkscape:groupmode="layer"
     id="layer1"
     transform="translate(-43.140416,-113.16936)"><path
       style="fill:#9d6300;fill-opacity:1"
       d="m 48.025628,168.77001 c -1.97536,-0.4946 -2.556552,-1.76361 -2.457245,-5.36532 0.130199,-4.72209 2.589537,-5.04075 2.589537,-0.33553 0,2.52171 0.265216,3.24889 1.184931,3.24889 1.077041,0 1.460902,-0.90534 1.460902,-3.44554 0,-2.41691 0.207721,-2.90446 1.237442,-2.90446 1.145377,0 1.493319,1.02844 1.350609,3.9921 -0.195921,4.06868 -1.971184,5.65989 -5.366176,4.80986 z m 11.080664,-1.59071 c -1.657682,-1.78459 -1.657682,-1.78459 -1.738965,-0.19844 -0.08128,1.58615 -0.08128,1.58615 -0.995646,1.67312 -1.432281,0.13623 -1.599178,-0.31796 -1.599178,-4.35198 0,-5.46876 0.761056,-5.72068 4.300599,-1.42353 0.98071,1.19062 0.98071,1.19062 0.98589,-0.44413 0.007,-2.09977 0.62292,-2.82181 1.96791,-2.30569 0.35439,0.13599 0.41852,0.7351 0.41852,3.90988 0,5.55595 -0.58477,6.10598 -3.33913,3.14077 z m 10.91598,1.38614 c -0.21914,-0.21914 -0.47179,-0.62954 -0.56143,-0.91199 -0.24399,-0.76873 -2.70328,-0.44862 -3.40477,0.44318 -0.36599,0.46529 -0.70822,0.6104 -1.29946,0.55101 -1.55963,-0.15668 -1.51623,-0.65511 0.40152,-4.61162 2.59926,-5.36251 2.92437,-5.37348 5.38548,-0.18163 0.93027,1.96244 1.69139,3.79164 1.69139,4.06489 0,0.92147 -1.49952,1.35936 -2.21273,0.64616 z m 10.30142,-0.0173 c -0.27651,-0.27651 -0.41577,-0.89996 -0.41577,-1.86129 0,-1.44552 0,-1.44552 -0.83282,-0.49699 -1.01848,1.15999 -1.6979,1.13064 -2.53153,-0.10935 -0.6044,-0.89902 -0.6044,-0.89902 -0.6044,0.56292 0,1.65912 -0.36046,2.14015 -1.50536,2.00887 -0.7436,-0.0853 -0.7436,-0.0853 -0.81643,-4.08221 -0.0984,-5.40043 0.69582,-6.06884 3.1383,-2.64115 1.21339,1.70282 1.21339,1.70282 2.51354,-0.0629 2.40764,-3.26973 3.28453,-2.60589 3.28453,2.48654 0,4.23085 -0.76171,5.66389 -2.23006,4.19554 z M 50.658993,152.86562 c -3.806441,-1.31399 -6.614609,-4.66845 -7.272865,-8.6877 -0.339282,-2.07163 -0.322358,-20.41672 0.02079,-22.53139 0.667582,-4.11406 4.112897,-7.72879 7.729203,-8.10927 8.433505,-0.8873 13.690555,-0.34563 13.690555,1.41062 0,1.51578 -0.32684,1.59262 -7.149106,1.68064 -10.995707,0.14187 -11.080661,0.26449 -11.174637,16.12864 -0.07721,13.03454 0.25896,14.31249 4.352899,16.54734 1.413208,0.77146 23.752694,0.87164 25.465014,0.1142 4.51637,-1.99781 4.99076,-3.56365 4.9438,-16.31823 -0.056,-15.19618 -0.62714,-16.25039 -8.95284,-16.52409 -3.62763,-0.11925 -4.06358,-0.18444 -4.42336,-0.66145 -2.69961,-3.57933 8.85865,-3.93989 13.11714,-0.4092 3.33141,2.76206 3.66484,4.33735 3.66484,17.31481 0,14.50701 -0.83206,17.00878 -6.54774,19.68735 -1.99577,0.93528 -24.925384,1.23395 -27.463689,0.35773 z m 26.544889,-0.74652 c 2.93525,-1.20375 4.95321,-3.29162 6.19602,-6.41069 1.26245,-3.16836 0.96233,-23.34489 -0.39123,-26.30145 -1.99711,-4.36227 -10.3095,-7.56564 -14.21218,-5.47698 -2.17749,1.16535 -0.40726,2.11724 3.93746,2.11724 8.3529,0 9.15834,1.51302 9.15834,17.2038 0,17.2854 -0.17646,17.45661 -17.99166,17.45661 -13.821768,0 -15.042167,-0.36105 -17.229797,-5.09738 -0.993843,-2.15172 -1.084745,-22.76921 -0.110104,-24.97255 1.727325,-3.9049 2.995896,-4.43589 10.852352,-4.54248 6.312499,-0.0856 6.884419,-0.17867 6.884419,-1.11983 0,-2.20576 -12.745538,-1.92005 -16.181214,0.36272 -4.120642,2.73789 -4.43698,3.9375 -4.447648,16.86624 -0.01277,15.4792 0.801827,17.67909 7.442651,20.09943 2.263529,0.82498 24.005861,0.67108 26.092591,-0.18468 z m -18.66663,-7.1448 c -1.923059,-0.77374 -1.178307,-4.52863 1.01537,-5.11933 4.96373,-1.33659 10.99132,0.15472 10.92451,2.70289 -0.0721,2.74964 -3.6551,3.60288 -4.60774,1.09726 -0.33,-0.86796 -3.95314,-0.96918 -3.95314,-0.11044 0,1.08151 -2.06877,1.95679 -3.379,1.42962 z m -2.166493,-6.68199 c -0.149845,-0.27998 -0.688044,-2.33381 -1.195997,-4.56406 -1.757077,-7.71471 -1.609882,-7.36228 -3.074913,-7.36228 -3.741752,0 -4.148018,-2.96472 -0.45287,-3.30481 3.874512,-0.35661 4.172566,-0.25251 4.758547,1.66194 0.509452,1.66442 0.509452,1.66442 9.344906,1.62864 9.4446,-0.0382 9.39499,-0.0435 9.39499,0.99475 0,1.04004 -4.45172,10.8105 -5.12694,11.2524 -0.77384,0.50645 -13.363969,0.22362 -13.647723,-0.30658 z m 14.258603,-2.07061 c 2.03795,-4.09325 4.00209,-8.64073 3.87507,-8.97176 -0.11016,-0.28706 -1.85359,-0.35481 -9.13083,-0.35481 -8.994668,0 -8.994668,0 -9.48072,-1.65364 -0.486052,-1.65365 -0.486052,-1.65365 -2.32457,-1.73508 -4.384049,-0.19418 -5.661516,1.98483 -1.366216,2.33039 1.644365,0.13229 1.644365,0.13229 2.864649,5.02708 0.671157,2.69214 1.355309,5.40081 1.520339,6.01927 0.598495,2.24291 12.884378,1.66419 14.042278,-0.66145 z"
       id="path1" /></g></svg>
